<svg width="16" height="16" viewBox="0 0 16 16" fill="none" xmlns="http://www.w3.org/2000/svg">
<path d="M15.3537 7.35367H0.646312C0.289375 7.35367 0 7.64304 0 7.99998C0 8.35695 0.289375 8.6463 0.646312 8.6463H15.3537C15.7107 8.6463 16 8.35695 16 7.99998C16 7.64304 15.7107 7.35367 15.3537 7.35367Z" fill="white"/>
<path d="M1.56037 7.99997L6.61859 2.94172C6.87099 2.68932 6.87099 2.2801 6.61859 2.02769C6.36618 1.77532 5.95696 1.77532 5.70455 2.02769L0.189305 7.54294C-0.0631016 7.79535 -0.0631016 8.20457 0.189305 8.45697L5.70455 13.9722C5.83074 14.0984 5.99618 14.1615 6.16159 14.1615C6.32699 14.1615 6.49243 14.0984 6.61862 13.9722C6.87102 13.7198 6.87102 13.3106 6.61862 13.0582L1.56037 7.99997Z" fill="white"/>
</svg>
