<svg width="24" height="24" viewBox="0 0 24 24" fill="none" xmlns="http://www.w3.org/2000/svg">
<circle cx="12" cy="12" r="11.5" fill="white" stroke="#9BD3E1"/>
<path d="M3.76121 6.33377C3.11634 7.26976 2.62626 8.32072 2.3291 9.4503H6.87791L3.76121 6.33377Z" fill="#29337A"/>
<path d="M9.19949 2.40027C8.04732 2.73581 6.98027 3.27124 6.04065 3.9696L9.19949 7.12844V2.40027Z" fill="#29337A"/>
<path d="M6.27551 20.1972C7.15687 20.8139 8.14154 21.2914 9.19943 21.5994V17.2737L6.27551 20.1972Z" fill="#29337A"/>
<path d="M2.44385 14.9527C2.77449 16.0237 3.28116 17.0173 3.92869 17.9012L6.87722 14.9527H2.44385Z" fill="#29337A"/>
<path d="M3.9262 6.10165C3.8703 6.17808 3.8152 6.2556 3.76119 6.33392L6.8779 9.45045H2.32909C2.25537 9.73102 2.1952 10.017 2.14563 10.3069H8.13178L3.9262 6.10165Z" fill="white"/>
<path d="M6.04358 20.0322C6.11966 20.0889 6.19786 20.1428 6.27551 20.1972L9.19942 17.2736V21.5993C9.48033 21.6814 9.76563 21.7523 10.0559 21.8093V16.02L6.04358 20.0322Z" fill="white"/>
<path d="M2.22168 14.0962C2.28375 14.3864 2.357 14.6722 2.44369 14.9527H6.8771L3.92857 17.9012C4.24925 18.3393 4.60485 18.7505 4.99123 19.1307L10.0257 14.0962H2.22168Z" fill="white"/>
<path d="M9.19941 2.40026V7.12843L6.04053 3.96976C5.60504 4.29361 5.19798 4.65313 4.8208 5.04234L10.0557 10.2772V2.19025C9.76562 2.24758 9.48032 2.31865 9.19941 2.40026Z" fill="white"/>
<path d="M9.19945 14.9225L9.16943 14.9527H9.19945V14.9225Z" fill="#D32030"/>
<path d="M10.0259 14.0962H10.0559V14.0661L10.0259 14.0962Z" fill="#D32030"/>
<path d="M13.8742 10.3068H13.8453V10.3358L13.8742 10.3068Z" fill="#D32030"/>
<path d="M9.22898 9.45049L9.19946 9.42081V9.45049H9.22898Z" fill="#D32030"/>
<path d="M10.0559 10.2772V10.3067H10.0855L10.0559 10.2772Z" fill="#D32030"/>
<path d="M14.7015 19.3857V21.6274C15.7732 21.3274 16.7723 20.8545 17.666 20.2384L15.2371 17.8095C15.043 18.4914 14.972 18.844 14.7015 19.3857Z" fill="#252F6C"/>
<path d="M15.2499 6.57992L17.9015 3.92839C16.9489 3.23078 15.8682 2.69916 14.7015 2.37231V4.67505C15.0134 5.29952 15.0396 5.77402 15.2499 6.57992Z" fill="#252F6C"/>
<path d="M20.0302 17.9595C20.698 17.0612 21.2184 16.0472 21.5565 14.9527H17.0234L20.0302 17.9595Z" fill="#252F6C"/>
<path d="M21.671 9.45047C21.3675 8.29703 20.8627 7.22635 20.1975 6.27567L17.0223 9.45047H21.671Z" fill="#252F6C"/>
<path d="M15.8337 14.2657L16.5209 14.9528L19.8102 18.2421C19.8849 18.1486 19.9591 18.0555 20.0305 17.9596L17.0237 14.9528H21.5567C21.6431 14.6726 21.7164 14.3866 21.7783 14.0964H15.898C15.8884 14.2178 15.8453 14.145 15.8337 14.2657Z" fill="#E7E7E7"/>
<path d="M15.1461 7.08142L18.1274 4.09987C18.0527 4.04194 17.9778 3.98431 17.9015 3.92841L15.25 6.57994C15.2775 6.68478 15.1206 6.97405 15.1461 7.08142Z" fill="#E7E7E7"/>
<path d="M14.7017 4.49081V2.37216C14.4211 2.29354 14.1355 2.22692 13.8452 2.17258V3.20602C14.1639 3.55148 14.4495 3.9854 14.7017 4.49081Z" fill="#E7E7E7"/>
<path d="M15.7664 10.3068H21.8547C21.8052 10.0169 21.7449 9.73105 21.6712 9.45031H17.0226L20.1977 6.27551C19.8856 5.8296 19.5387 5.41024 19.1597 5.02167L15.5834 8.59767C15.6797 9.24633 15.7228 9.62304 15.7664 10.3068Z" fill="#E7E7E7"/>
<path d="M15.0928 17.6647L17.6663 20.2385C18.0944 19.9437 18.4975 19.6156 18.8736 19.2594L15.4885 15.8741C15.3804 16.5002 15.2522 17.1049 15.0928 17.6647Z" fill="#E7E7E7"/>
<path d="M13.8453 20.6751V21.8269C14.1355 21.7729 14.421 21.706 14.7018 21.6274V19.3857C14.4495 19.8913 14.1638 20.3301 13.8453 20.6751Z" fill="#E7E7E7"/>
<path d="M15.5833 8.59766L19.1593 5.02166C18.8374 4.69101 18.4922 4.38329 18.1272 4.09985L15.3173 6.91023C15.4422 7.43223 15.4989 8.02972 15.5833 8.59766Z" fill="#D71F28"/>
<path d="M11.5009 2.01233C11.6675 2.00426 11.8336 2 11.9998 2C11.8326 2 11.6662 2.00426 11.5009 2.01233Z" fill="#D32030"/>
<path d="M11.9997 22C11.8335 22 11.6674 21.9954 11.5011 21.9874C11.6664 21.9957 11.8325 22 11.9997 22Z" fill="#D32030"/>
<path d="M11.9998 22C12.6307 22 13.2468 21.9389 13.8452 21.8269V20.6751C13.3199 21.2445 12.7054 22 11.9998 22Z" fill="#D32030"/>
<path d="M21.8544 10.3068H15.8453C15.9249 11.5609 15.9152 12.8506 15.8165 14.0962H21.7784C21.9227 13.42 22 12.7192 22 12.0002C22 11.4226 21.9486 10.8576 21.8544 10.3068Z" fill="#D71F28"/>
<path d="M15.8337 14.2657C15.7782 14.8565 15.5846 15.3169 15.4883 15.8743L18.8734 19.2594C19.2083 18.942 19.5214 18.6026 19.81 18.2421L16.5209 14.9527L15.8337 14.2657Z" fill="#D71F28"/>
<path d="M13.8454 3.28036V2.17273C13.2471 2.0611 12.631 2 11.9999 2C12.7055 2 13.3201 2.71116 13.8454 3.28036Z" fill="#D32030"/>
<path d="M14.7017 19.8182C14.9721 19.2764 15.2041 18.6525 15.3983 17.9707L14.7017 17.2741V19.8182Z" fill="#29337A"/>
<path d="M15.485 6.34497C15.2743 5.53907 15.0135 4.80642 14.7017 4.18195V7.12794L15.485 6.34497Z" fill="#29337A"/>
<path d="M16.0279 14.4596C16.0392 14.3389 16.0495 14.2179 16.0593 14.0963H15.6646L16.0279 14.4596Z" fill="white"/>
<path d="M14.7017 7.12799V4.18183C14.4493 3.67642 14.1639 3.2422 13.8452 2.89703V8.382L15.5652 6.66207C15.5393 6.55469 15.5121 6.44952 15.4849 6.34468L14.7017 7.12799Z" fill="white"/>
<path d="M13.8743 10.3068H16.088C16.0446 9.62309 15.9754 8.95044 15.8792 8.30194L13.8743 10.3068Z" fill="white"/>
<path d="M13.8453 21.1028C14.164 20.7574 14.4495 20.3235 14.7018 19.8181V17.2739L15.3984 17.9705C15.5582 17.4105 15.6922 16.8122 15.8006 16.1862L13.8454 14.2311L13.8453 21.1028Z" fill="white"/>
<path d="M13.8453 21.1029V14.2311L15.8004 16.1863C15.8966 15.6287 15.9722 15.0505 16.0276 14.4596L15.6643 14.0962H16.059C16.1577 12.8506 16.1673 11.5609 16.0878 10.3067H13.8741L15.8789 8.30193C15.7944 7.73383 15.6899 7.18434 15.565 6.66218L13.8454 8.38211V2.89715C13.32 2.32777 12.7055 2 11.9998 2C11.8336 2 11.6675 2.00426 11.5009 2.01233C11.009 2.03694 10.5267 2.09745 10.0558 2.1903V10.2772L4.82081 5.04235C4.49916 5.37426 4.19997 5.72792 3.92615 6.10167L7.27495 9.45047L8.13169 10.3069H2.14558C2.05181 10.8576 2 11.4226 2 12.0002C2 12.7194 2.07769 13.4199 2.22167 14.0962H10.0258L4.99134 19.1307C5.32102 19.4546 5.67201 19.7562 6.04357 20.0321L10.0557 16.02V21.8094C10.5265 21.9023 11.0092 21.9627 11.5011 21.9874C11.6673 21.9954 11.8334 22 11.9997 22C12.7055 22 13.32 21.6722 13.8453 21.1029Z" fill="#E51D35"/>
</svg>
