<?xml version="1.0" encoding="utf-8"?>
<!-- Generator: Adobe Illustrator 21.1.0, SVG Export Plug-In . SVG Version: 6.00 Build 0)  -->
<svg version="1.1" id="Calque_1" xmlns="http://www.w3.org/2000/svg" xmlns:xlink="http://www.w3.org/1999/xlink" x="0px" y="0px"
	 width="995.2px" height="258.4px" viewBox="0 0 995.2 258.4" style="enable-background:new 0 0 995.2 258.4;" xml:space="preserve"
	>
<style type="text/css">
	.st0{fill:#D8D4D3;}
	.st1{fill:#282C33;}
	.st2{fill:#546072;}
	.st3{fill:#FFFFFF;}
</style>
<g>
	<g>
		<g>
			<path class="st0" d="M127.6,224.6c57.7-3.7,104.3-2.5,104.9,2.5c0.6,4.9-46,12.3-103.7,16.6c-57.7,3.7-104.3,2.5-104.9-2.5
				C23.3,235.7,69.9,228.3,127.6,224.6"/>
		</g>
	</g>
	<path class="st1" d="M231.3,71.9c0-1.8-1.8-3.7-3.7-4.3l-10.4-1.2c-2.5,0-4.9,1.8-4.9,4.3l0.6,20.9l-6.1,0.6l-3.7-73.6
		C202.5,5,158.3-2.4,112.3,0.7h-1.8c-52.1,2.5-89,14.7-88.3,27l3.7,74.2l-6.1,0.6L19,82.9c0-2.5-2.5-4.3-4.9-3.7L3.7,81.1
		c-2.5,0-3.7,2.5-3.7,4.3l1.2,26.4c0,2.5,1.8,4.3,4.3,4.3l10.4-0.6c2.5-0.6,4.3-2.5,4.3-4.3v-1.2l6.1-0.6l4.9,95.7
		c0,4.3,4.3,8,8.6,8h5.5l0.6,17.8c0,3.1,3.1,5.5,6.1,5.5l10.4-0.6c3.7,0,6.1-2.5,5.5-6.1l-0.6-17.8l109.8-5.5l0.6,18.4
		c0,3.1,3.1,5.5,6.1,5.5l10.4-0.6c3.1,0,6.1-3.1,5.5-6.1l-0.6-18.4h4.9c4.3,0,8-4.3,8-8.6l-4.9-96.3l6.1-0.6l0,0
		c0,3.1,2.5,4.9,4.3,4.3l10.4-0.6c2.5,0,4.3-1.8,4.3-4.3L231.3,71.9z M168.1,134.4c-0.6-7.4,4.9-13.5,12.3-14.1
		c7.4-0.6,13.5,4.9,14.1,12.3c0.6,7.4-4.9,14.1-12.3,14.1C174.8,147.3,168.7,141.8,168.1,134.4z M111.7,8.1L111.7,8.1
		c19.6-1.2,38-0.6,38,1.2l0.6,12.3c0,0.6,0,1.2-1.8,1.2l-72.4,3.7c-1.8,0-1.2-0.6-1.2-1.2L74.2,13C74.2,11.1,89.6,9.3,111.7,8.1z
		 M35.6,47.9c0-3.7,2.5-6.7,6.1-6.7l144.2-7.4c3.7,0,6.7,2.5,6.7,6.1l2.5,52.8c0,3.7-2.5,6.7-6.1,6.7l-144.2,7.4
		c-3.7,0-6.7-2.5-6.7-6.1L35.6,47.9z M39.3,141.2c-0.6-7.4,5.5-13.5,12.3-14.1c7.4-0.6,13.5,4.9,14.1,12.3
		c0.6,7.4-4.9,14.1-12.3,14.1C46,154.1,39.9,148.5,39.3,141.2z M122.1,189h-1.2c-27,1.8-53.4-5.5-54-17.8v-3.7
		c0-3.7,2.5-6.7,6.1-6.7l93.3-4.9c3.7,0,6.7,2.5,6.7,6.1l0.6,3.7C174.2,177.4,152.8,187.2,122.1,189z"/>
	<path class="st1" d="M962,157.1c-2.5-4.3-6.1-7.4-11-11c-4.9-3.1-12.9-6.7-23.9-10.4c-12.9-4.9-22.1-9.2-26.4-12.9
		c-4.3-3.7-6.7-9.2-6.7-15.3s3.1-10.4,8.6-13.5C908,90.9,916,89,926.4,89c10.4,0,21.5,2.5,33.1,7.4l4.3-9.8
		c-11.7-4.9-24.5-7.4-37.4-7.4c-13.5,0-24.5,2.5-31.9,8c-7.4,5.5-11.7,12.3-11.7,21.5c0,5.5,1.2,10.4,3.7,14.7
		c2.5,4.3,6.1,7.4,11,11c4.9,3.1,13.5,6.7,25.8,11.7c11.7,4.3,19.6,8,24.5,12.3c4.9,4.3,7.4,9.2,7.4,15.3c0,6.7-3.1,12.3-9.2,16
		c-6.1,4.3-15.3,6.1-27.6,6.1c-13.5,0-26.4-3.1-38.6-9.2v12.3c9.8,4.9,22.7,7.4,38.6,7.4c15.3,0,27-3.1,35.6-8.6
		c8.6-6.1,12.3-14.1,12.3-25.2C965.6,165.7,964.4,161.4,962,157.1 M753.4,81.1v79.8c0,29.4,14.1,44.8,41.7,44.8
		c20.2,0,34.4-6.1,42.3-19h0.6l1.8,16.6h9.2V81.1h-11v67.5c0,16.6-3.7,28.2-10.4,35.6c-6.7,7.4-17.8,11-31.9,11
		c-11,0-19-3.1-23.9-8.6c-4.9-5.5-8-14.7-8-27V81.1H753.4z M660.7,122.2c31.9,0,47.9,11,47.9,33.7c0,24.5-15.3,36.8-45.4,36.8h-38.7
		v-70.6H660.7z M624.5,49.2h33.1c15.3,0,27.6,2.5,35.6,7.4c8,4.9,11.7,12.9,11.7,23.9s-3.7,19-10.4,23.9c-6.7,4.9-18.4,8-33.7,8
		h-36.2V49.2z M613.5,203.1h50.3c18.4,0,32.5-4.3,42.3-12.3c9.8-8,15.3-19.6,15.3-35c0-11-3.1-20.2-9.2-26.4s-16-10.4-28.8-12.3
		v-0.6c11-1.8,19.6-6.1,25.2-12.3s8.6-14.1,8.6-23.9c0-14.1-4.9-24.5-14.1-31.3c-9.2-6.7-24.5-10.4-44.8-10.4h-44.8L613.5,203.1
		L613.5,203.1z"/>
	<path class="st2" d="M531.3,203.1c-0.6,2.5-3.1,8-6.1,16c-3.1,8-5.5,14.1-8,17.8c-2.5,3.7-4.9,6.7-8,8.6c-3.1,1.8-6.1,2.5-9.8,2.5
		c-4.9,0-9.8-0.6-14.1-1.8v9.8c5.5,1.8,9.8,2.5,14.1,2.5c5.5,0,10.4-1.2,14.7-3.1c4.3-1.8,7.4-4.9,10.4-9.2s6.7-11.7,11-23.3
		l54.6-141.7h-11.7l-25.8,67.5c-7.4,19-12.3,33.7-15.3,42.9h-0.6c-1.8-7.4-7.4-21.5-14.7-42.3l-25.8-68.7h-11.7L531.3,203.1z
		 M389,203.1l61.4-150.9h0.6c-0.6,9.2-1.2,18.4-1.2,27v124.5h11.7V39.3h-17.2l-58.3,144.2h-0.6L327,39.3h-17.8v163.8h11V80.4
		c0-9.8,0-19-0.6-28.2h0.6l61.4,151.5L389,203.1L389,203.1z"/>
</g>
<g>
	<path class="st3" d="M954.4,67.5c0-13.6,0-27.2,0-40.8c13.6,0,27.2,0,40.8,0c0,13.6,0,27.2,0,40.8C981.6,67.5,968,67.5,954.4,67.5z
		 M982.5,46c0-0.1-0.1-0.1-0.1-0.1c-1.8-2.9-3.7-5.9-5.5-8.8c-0.1-0.1-0.1-0.1-0.2-0.1c-1,0-2,0-3,0c0,0-0.1,0-0.1,0
		c0,6.4,0,12.7,0,19.1c0.8,0,1.7,0,2.5,0c0-5.1,0-10.3,0-15.4c2.1,3.4,4.2,6.8,6.4,10.2c2.1-3.4,4.2-6.8,6.3-10.1c0,0,0,0,0,0
		c0,5.1,0,10.2,0,15.4c0.9,0,1.7,0,2.5,0c0-6.4,0-12.7,0-19.1c-0.1,0-0.1,0-0.1,0c-1,0-2,0-2.9,0c-0.1,0-0.2,0-0.2,0.1
		c-1.8,2.9-3.7,5.9-5.5,8.8C982.5,45.9,982.5,45.9,982.5,46z M965.9,56c0-5.5,0-11,0-16.6c1.7,0,3.4,0,5.1,0c0-0.9,0-1.7,0-2.5
		c-4.2,0-8.5,0-12.7,0c0,0.8,0,1.7,0,2.5c1.7,0,3.4,0,5.1,0c0,5.5,0,11,0,16.5C964.2,56,965.1,56,965.9,56z"/>
	<path class="st1" d="M982.5,46c0,0,0.1-0.1,0.1-0.1c1.8-2.9,3.7-5.9,5.5-8.8c0.1-0.1,0.1-0.1,0.2-0.1c1,0,2,0,2.9,0
		c0,0,0.1,0,0.1,0c0,6.4,0,12.7,0,19.1c-0.8,0-1.7,0-2.5,0c0-5.1,0-10.2,0-15.4c0,0,0,0,0,0c-2.1,3.4-4.2,6.8-6.3,10.1
		c-2.1-3.4-4.2-6.8-6.4-10.2c0,5.2,0,10.3,0,15.4c-0.9,0-1.7,0-2.5,0c0-6.4,0-12.7,0-19.1c0,0,0.1,0,0.1,0c1,0,2,0,3,0
		c0.1,0,0.1,0,0.2,0.1c1.8,2.9,3.7,5.9,5.5,8.8C982.4,45.9,982.4,45.9,982.5,46z"/>
	<path class="st1" d="M965.9,56c-0.9,0-1.7,0-2.5,0c0-5.5,0-11,0-16.5c-1.7,0-3.4,0-5.1,0c0-0.9,0-1.7,0-2.5c4.2,0,8.5,0,12.7,0
		c0,0.8,0,1.7,0,2.5c-1.7,0-3.4,0-5.1,0C965.9,45,965.9,50.5,965.9,56z"/>
</g>
</svg>
