<svg width="24" height="24" viewBox="0 0 24 24" fill="none" xmlns="http://www.w3.org/2000/svg">
<ellipse cx="12.25" cy="12.25" rx="9.75" ry="9.75" transform="rotate(-180 12.25 12.25)" fill="white"/>
<path d="M12 24C18.6274 24 24 18.6274 24 12C24 5.37263 18.6274 0 12 0C5.37263 0 0 5.37263 0 12C0.00753403 18.6242 5.37577 23.9925 12 24ZM7.83984 11.697L15.1132 4.42362C15.2208 4.31229 15.38 4.26772 15.5299 4.30685C15.6797 4.34598 15.7969 4.46317 15.836 4.613C15.8751 4.76283 15.8306 4.92208 15.7192 5.02965L8.74888 12L15.7192 18.9704C15.8816 19.1384 15.8793 19.4058 15.714 19.5711C15.5487 19.7365 15.2812 19.7388 15.1132 19.5764L7.83984 12.303C7.67264 12.1356 7.67264 11.8644 7.83984 11.697Z" fill="#E76C89"/>
</svg>
