<svg width="27" height="41" viewBox="0 0 27 41" fill="none" xmlns="http://www.w3.org/2000/svg">
<path d="M25.8293 13.8286C25.3142 13.8286 24.8964 14.2462 24.8964 14.7614V20.5898C24.8964 26.7556 19.8802 31.7718 13.7142 31.7718C7.54832 31.7718 2.53212 26.7555 2.53212 20.5897V14.7613C2.53212 14.2461 2.11437 13.8285 1.59931 13.8285C1.08409 13.8285 0.666504 14.2461 0.666504 14.7613V20.5897C0.666504 27.4706 6.02068 33.1238 12.7814 33.6037V38.4458H7.95645C7.44139 38.4458 7.02364 38.8634 7.02364 39.3786C7.02364 39.8939 7.44131 40.3115 7.95645 40.3115H19.4719C19.9869 40.3115 20.4047 39.8939 20.4047 39.3786C20.4047 38.8634 19.987 38.4458 19.4719 38.4458H14.647V33.6037C21.4078 33.1238 26.7619 27.4705 26.7619 20.5897V14.7613C26.7621 14.2462 26.3443 13.8286 25.8293 13.8286Z" fill="white"/>
<path d="M14.3359 0.578125H13.0927C8.82837 0.578125 5.35913 4.04736 5.35913 8.31165V21.2116C5.35913 25.4759 8.82837 28.9452 13.0927 28.9452H14.3359C18.6002 28.9452 22.0694 25.4759 22.0694 21.2116V8.31165C22.0694 4.04736 18.6002 0.578125 14.3359 0.578125ZM20.2039 10.7329H16.8225C16.3073 10.7329 15.8897 11.1505 15.8897 11.6657C15.8897 12.1809 16.3073 12.5985 16.8225 12.5985H20.2039V15.195H16.8225C16.3073 15.195 15.8897 15.6126 15.8897 16.1278C15.8897 16.643 16.3073 17.0606 16.8225 17.0606H20.2039V19.6573H16.8225C16.3073 19.6573 15.8897 20.0749 15.8897 20.5901C15.8897 21.1053 16.3073 21.5229 16.8225 21.5229H20.1955C20.0332 24.6144 17.4672 27.0796 14.336 27.0796H13.0927C9.96155 27.0796 7.39548 24.6144 7.2332 21.5229H10.6062C11.1214 21.5229 11.539 21.1053 11.539 20.5901C11.539 20.0749 11.1214 19.6573 10.6062 19.6573H7.22482V17.0606H10.6062C11.1214 17.0606 11.539 16.643 11.539 16.1278C11.539 15.6126 11.1214 15.195 10.6062 15.195H7.22482V12.5985H10.6062C11.1214 12.5985 11.539 12.1809 11.539 11.6657C11.539 11.1505 11.1214 10.7329 10.6062 10.7329H7.22482V8.31165C7.22482 5.98631 8.58446 3.97247 10.5505 3.02345V5.66068C10.5505 6.1759 10.9682 6.59349 11.4833 6.59349C11.9984 6.59349 12.4161 6.1759 12.4161 5.66068V2.48394C12.6383 2.45825 14.7904 2.45825 15.0126 2.48394V5.66068C15.0126 6.1759 15.4302 6.59349 15.9454 6.59349C16.4605 6.59349 16.8782 6.1759 16.8782 5.66068V3.02345C18.8442 3.97247 20.2039 5.98616 20.2039 8.31158V10.7329Z" fill="white"/>
</svg>
