<svg width="24" height="24" viewBox="0 0 24 24" fill="none" xmlns="http://www.w3.org/2000/svg">
<circle cx="11.75" cy="11.75" r="9.75" fill="white"/>
<path d="M12 0C5.37263 0 0 5.37263 0 12C0 18.6274 5.37263 24 12 24C18.6274 24 24 18.6274 24 12C23.9925 5.37577 18.6242 0.00753348 12 0ZM16.1602 12.303L8.88679 19.5764C8.77923 19.6877 8.61998 19.7323 8.47015 19.6931C8.32031 19.654 8.20312 19.5368 8.16399 19.387C8.12486 19.2372 8.16943 19.0779 8.28076 18.9704L15.2511 12L8.28076 5.02965C8.11837 4.86161 8.12068 4.59417 8.28599 4.42885C8.45131 4.26353 8.71875 4.26123 8.88679 4.42362L16.1602 11.697C16.3274 11.8644 16.3274 12.1356 16.1602 12.303Z" fill="#E76C89"/>
</svg>
