<svg width="21" height="20" viewBox="0 0 21 20" fill="none" xmlns="http://www.w3.org/2000/svg">
<g clip-path="url(#clip0)">
<path d="M6.37854 14.0926C5.00562 14.0643 3.82092 13.3464 3.16878 12.3062C3.59813 12.3056 4.0202 12.258 4.41524 12.1551L4.38486 11.1805C2.89347 10.8899 1.7271 9.77576 1.41969 8.37746C1.85036 8.51328 2.30941 8.59398 2.77609 8.60242L4.55156 8.6345L3.05368 7.68074C2.04063 7.0357 1.37281 5.92956 1.37281 4.695C1.37281 4.27814 1.44873 3.87886 1.58793 3.50424C3.78504 5.78127 6.86732 7.25067 10.3127 7.41071L10.9763 7.44153L10.8223 6.79537C10.7626 6.54454 10.7362 6.27233 10.7362 5.97625C10.7362 4.0149 12.4095 2.375 14.5386 2.375C15.6322 2.375 16.6304 2.81687 17.3273 3.52357L17.5146 3.71355L17.7767 3.66369C18.2625 3.57129 18.735 3.44422 19.1912 3.28326C18.9295 3.56789 18.6198 3.81398 18.2722 4.0116L18.5795 4.94263C18.8797 4.90629 19.1763 4.85721 19.4685 4.7954C19.1867 5.0554 18.8847 5.29533 18.5623 5.51325L18.328 5.67157L18.3429 5.9539C18.3519 6.12268 18.358 6.28819 18.358 6.4575C18.358 11.636 14.2149 17.625 6.6045 17.625C5.00706 17.625 3.49088 17.3265 2.10844 16.7811C3.81536 16.5896 5.38338 15.9497 6.66697 14.9935L7.83588 14.1226L6.37854 14.0926Z" fill="#00ACEE" stroke="black"/>
</g>
<defs>
<clipPath id="clip0">
<rect width="21" height="20" fill="white"/>
</clipPath>
</defs>
</svg>
