<svg width="19" height="19" viewBox="0 0 19 19" fill="none" xmlns="http://www.w3.org/2000/svg">
<path d="M9.61389 0C14.798 0 19.0001 4.20264 19.0001 9.38617C19.0001 14.5697 14.798 18.7723 9.61389 18.7723C4.42978 18.7723 0.227783 14.5696 0.227783 9.38617C0.227783 4.20271 4.42984 0 9.61389 0Z" fill="#0E76A8"/>
<path d="M5.67007 12.2236H7.40768V6.65545H5.67007V12.2236ZM12.4395 6.46257C11.5962 6.46257 10.8417 6.75865 10.3064 7.41217V6.63713H8.56244V12.2236H10.3064V9.20259C10.3064 8.56414 10.9148 7.9413 11.6769 7.9413C12.439 7.9413 12.6269 8.56414 12.6269 9.18698V12.2231H14.3645V9.06264C14.3644 6.86737 13.2834 6.46257 12.4395 6.46257ZM6.53075 6.099C7.01098 6.099 7.40074 5.72428 7.40074 5.26259C7.40074 4.8009 7.01098 4.42624 6.53075 4.42624C6.05053 4.42624 5.66077 4.80096 5.66077 5.26265C5.66077 5.72434 6.05053 6.099 6.53075 6.099Z" fill="white"/>
</svg>
