<svg width="18" height="27" viewBox="0 0 18 27" fill="none" xmlns="http://www.w3.org/2000/svg">
<path d="M16.5198 8.69903C16.1816 8.69903 15.9074 8.97318 15.9074 9.31143V13.1379C15.9074 17.1859 12.6141 20.4791 8.56606 20.4791C4.51803 20.4791 1.22481 17.1858 1.22481 13.1378V9.31138C1.22481 8.97313 0.95055 8.69898 0.612403 8.69898C0.274155 8.69898 0 8.97313 0 9.31138V13.1378C0 17.6553 3.5151 21.3667 7.95366 21.6817V24.8607H4.78597C4.44782 24.8607 4.17357 25.1348 4.17357 25.4731C4.17357 25.8113 4.44777 26.0855 4.78597 26.0855H12.346C12.6842 26.0855 12.9585 25.8113 12.9585 25.4731C12.9585 25.1348 12.6842 24.8607 12.346 24.8607H9.17841V21.6817C13.617 21.3667 17.1321 17.6552 17.1321 13.1378V9.31138C17.1322 8.97318 16.8579 8.69903 16.5198 8.69903Z" fill="black"/>
<path d="M8.97409 0H8.15789C5.35831 0 3.0807 2.27761 3.0807 5.07719V13.5462C3.0807 16.3458 5.35831 18.6234 8.15789 18.6234H8.97409C11.7737 18.6234 14.0513 16.3458 14.0513 13.5462V5.07719C14.0513 2.27761 11.7737 0 8.97409 0ZM12.8265 6.66679H10.6066C10.2683 6.66679 9.99418 6.94095 9.99418 7.2792C9.99418 7.61744 10.2683 7.8916 10.6066 7.8916H12.8265V9.59624H10.6066C10.2683 9.59624 9.99418 9.8704 9.99418 10.2086C9.99418 10.5469 10.2683 10.821 10.6066 10.821H12.8265V12.5258H10.6066C10.2683 12.5258 9.99418 12.7999 9.99418 13.1382C9.99418 13.4764 10.2683 13.7506 10.6066 13.7506H12.821C12.7145 15.7802 11.0298 17.3987 8.97414 17.3987H8.15794C6.10226 17.3987 4.41759 15.7802 4.31106 13.7506H6.52549C6.86374 13.7506 7.13789 13.4764 7.13789 13.1382C7.13789 12.7999 6.86374 12.5258 6.52549 12.5258H4.30555V10.821H6.52549C6.86374 10.821 7.13789 10.5469 7.13789 10.2086C7.13789 9.8704 6.86374 9.59624 6.52549 9.59624H4.30555V7.8916H6.52549C6.86374 7.8916 7.13789 7.61744 7.13789 7.2792C7.13789 6.94095 6.86374 6.66679 6.52549 6.66679H4.30555V5.07719C4.30555 3.55057 5.19818 2.22845 6.48891 1.60539V3.33678C6.48891 3.67503 6.76312 3.94919 7.10131 3.94919C7.43951 3.94919 7.71372 3.67503 7.71372 3.33678V1.2512C7.85958 1.23433 9.27249 1.23433 9.41836 1.2512V3.33678C9.41836 3.67503 9.69251 3.94919 10.0308 3.94919C10.3689 3.94919 10.6432 3.67503 10.6432 3.33678V1.60539C11.9339 2.22845 12.8265 3.55046 12.8265 5.07714V6.66679Z" fill="black"/>
</svg>
