<svg width="31" height="30" viewBox="0 0 31 30" fill="none" xmlns="http://www.w3.org/2000/svg">
<path d="M15.5 0C6.95341 0 0 6.72911 0 15C0 23.2709 6.95341 30 15.5 30C24.0466 30 31 23.2709 31 15C31 6.72911 24.0466 0 15.5 0ZM22.1429 21.9643H8.85714C8.246 21.9643 7.75 21.4843 7.75 20.8929C7.75 20.3014 8.246 19.8214 8.85714 19.8214H22.1429C22.754 19.8214 23.25 20.3014 23.25 20.8929C23.25 21.4843 22.754 21.9643 22.1429 21.9643ZM22.1429 16.0714H8.85714C8.246 16.0714 7.75 15.5914 7.75 15C7.75 14.4086 8.246 13.9286 8.85714 13.9286H22.1429C22.754 13.9286 23.25 14.4086 23.25 15C23.25 15.5914 22.754 16.0714 22.1429 16.0714ZM22.1429 10.1786H8.85714C8.246 10.1786 7.75 9.69857 7.75 9.10714C7.75 8.51571 8.246 8.03571 8.85714 8.03571H22.1429C22.754 8.03571 23.25 8.51571 23.25 9.10714C23.25 9.69857 22.754 10.1786 22.1429 10.1786Z" fill="#1D1045"/>
</svg>
