<svg width="35" height="47" viewBox="0 0 35 47" fill="none" xmlns="http://www.w3.org/2000/svg">
<g filter="url(#filter0_d)">
<path d="M17.5 0C10.0444 0 4 6.12773 4 13.686C4 14.2646 4.04579 14.8285 4.11558 15.3876C5.26912 26.0781 16.6234 38.3995 16.6234 38.3995C16.8257 38.629 17.0207 38.7706 17.2086 38.873L17.2182 38.8779L17.5963 39L17.9744 38.8779L17.9841 38.873C18.1719 38.7705 18.367 38.6216 18.5693 38.3995C18.5693 38.3995 29.7598 26.0561 30.8868 15.3632C30.9542 14.8115 31 14.2524 31 13.6836C30.9975 6.12773 24.9556 0 17.5 0Z" fill="#E76C89"/>
</g>
<g clip-path="url(#clip0)">
<path d="M13.4998 19.4833C13.4998 17.7675 13.4998 16.0957 13.4998 14.3988C13.7152 14.3988 13.9243 14.3988 14.1715 14.3988C14.1715 15.1404 14.1715 15.882 14.1715 16.6236C14.1715 17.3653 14.1715 18.1069 14.1715 18.8862C14.8495 18.8862 15.4895 18.8925 16.1295 18.8799C16.1866 18.8799 16.2563 18.7857 16.2879 18.7228C16.364 18.5657 16.4147 18.396 16.4971 18.1823C15.9774 18.1823 15.4895 18.1823 14.9826 18.1823C14.9826 16.4665 14.9826 14.7947 14.9826 13.0915C15.1917 13.0915 15.4071 13.0915 15.6479 13.0915C15.6479 14.5748 15.6479 16.0454 15.6479 17.5475C16.7569 17.5475 17.8341 17.5475 18.9494 17.5475C18.7023 16.8562 18.4551 16.1711 18.189 15.4421C17.9799 15.9763 17.7834 16.4728 17.587 16.9693C17.3906 17.4784 17.3906 17.4784 16.7949 17.3841C16.9913 16.875 17.1878 16.3722 17.3779 15.8632C17.5426 15.4358 17.7011 15.0021 17.8848 14.581C17.9292 14.4868 18.0749 14.3862 18.1763 14.3862C18.2777 14.3799 18.4425 14.4742 18.4805 14.5622C19.1142 16.146 19.7288 17.7361 20.3498 19.3262C20.3625 19.3639 20.3688 19.4079 20.3815 19.4833C20.1787 19.4833 19.9886 19.4959 19.8049 19.477C19.7352 19.4707 19.6465 19.3827 19.6211 19.3136C19.488 19.0182 19.3676 18.7165 19.2599 18.4086C19.1965 18.2326 19.1078 18.1635 18.9177 18.1697C18.3981 18.1823 17.8848 18.1635 17.3652 18.1823C17.2638 18.1886 17.1181 18.2892 17.08 18.3834C16.947 18.6788 16.8583 18.9931 16.7315 19.2947C16.6935 19.3765 16.5794 19.477 16.4971 19.477C15.5149 19.4896 14.5263 19.4833 13.4998 19.4833Z" fill="white"/>
<path d="M24.399 15.2347C23.9681 15.1341 23.5688 14.9833 23.1569 14.9582C21.2179 14.8325 20.7236 16.4288 21.0848 17.6481C21.3953 18.7103 22.6753 19.2885 23.7209 18.8486C23.8096 18.8108 23.892 18.6537 23.892 18.5469C23.911 18.0504 23.8983 17.5476 23.8983 17.0259C24.1328 17.0259 24.3356 17.0259 24.5891 17.0259C24.5891 17.7047 24.5891 18.3772 24.5827 19.056C24.5827 19.1062 24.513 19.1817 24.456 19.2068C23.6702 19.5965 22.1811 19.8102 21.2242 19.0937C20.3878 18.4652 20.0329 17.3276 20.3371 16.2089C20.6159 15.2033 21.4397 14.4805 22.5169 14.3925C22.9732 14.3548 23.4421 14.3925 23.8983 14.4679C24.4687 14.5496 24.513 14.6691 24.399 15.2347Z" fill="white"/>
<path d="M13.7215 11.8094C14.3678 11.8094 14.9952 11.8094 15.6415 11.8094C15.6415 12.0231 15.6415 12.1928 15.6415 12.3876C14.767 12.3876 13.9052 12.3876 13.0244 12.3876C13.0244 10.7032 13.0244 9.03143 13.0244 7.3345C13.8672 7.3345 14.7163 7.3345 15.5655 7.3345C15.5781 7.78073 15.4641 7.90014 15.0395 7.90014C14.6086 7.90014 14.1777 7.90014 13.7278 7.90014C13.7278 8.44065 13.7278 8.94344 13.7278 9.49023C14.2854 9.49023 14.8241 9.49023 15.388 9.49023C15.388 9.7102 15.388 9.89247 15.388 10.0999C14.8367 10.0999 14.2918 10.0999 13.7278 10.0999C13.7215 10.6781 13.7215 11.2249 13.7215 11.8094Z" fill="white"/>
<path d="M27.9412 14.4113C27.8335 14.9833 27.8335 14.9833 27.3012 14.9833C26.9019 14.9833 26.5027 14.9833 26.0782 14.9833C26.0782 15.5112 26.0782 16.0203 26.0782 16.5734C26.6231 16.5734 27.1744 16.5734 27.7384 16.5734C27.7384 16.787 27.7384 16.963 27.7384 17.1767C27.1871 17.1767 26.6421 17.1767 26.0782 17.1767C26.0782 17.7612 26.0782 18.308 26.0782 18.8925C26.7182 18.8925 27.3455 18.8925 27.9919 18.8925C27.9919 19.0999 27.9919 19.2696 27.9919 19.4644C27.1364 19.4644 26.2746 19.4644 25.3875 19.4644C25.3875 17.7926 25.3875 16.1146 25.3875 14.4113C26.2239 14.4113 27.073 14.4113 27.9412 14.4113Z" fill="white"/>
<path d="M6.88403 14.405C6.90938 14.3988 6.91572 14.3925 6.92839 14.3925C7.57474 14.3485 7.57474 14.3485 7.80287 14.9393C8.22743 16.0454 8.652 17.1453 9.07657 18.2514C9.09558 18.2954 9.12092 18.3394 9.15894 18.4148C9.5138 17.5601 9.86233 16.7305 10.2109 15.9071C10.3503 15.5678 10.496 15.2284 10.6354 14.8953C10.8762 14.3359 10.8762 14.3359 11.5416 14.4176C11.2057 15.1907 10.8762 15.9574 10.5467 16.7242C10.1728 17.5915 9.8053 18.4588 9.41875 19.3136C9.3744 19.4079 9.22865 19.4959 9.12092 19.5021C9.03221 19.5084 8.88012 19.4204 8.8421 19.3387C8.19575 17.7486 7.55573 16.1523 6.92205 14.5622C6.89671 14.5056 6.89037 14.4553 6.88403 14.405Z" fill="white"/>
<path d="M11.5796 13.6509C11.5796 11.9728 11.5796 10.301 11.5796 8.60409C11.7887 8.60409 11.9915 8.60409 12.2323 8.60409C12.2323 10.0685 12.2323 11.5392 12.2323 13.0475C12.885 13.0475 13.4996 13.0475 14.1397 13.0475C14.1397 13.2675 14.1397 13.4498 14.1397 13.6509C13.2969 13.6509 12.4477 13.6509 11.5796 13.6509Z" fill="white"/>
<path d="M12.0232 14.3925C12.2513 14.3925 12.4478 14.3925 12.6695 14.3925C12.6695 16.0831 12.6695 17.7612 12.6695 19.4644C12.4604 19.4644 12.2513 19.4644 12.0232 19.4644C12.0232 17.7801 12.0232 16.102 12.0232 14.3925Z" fill="white"/>
</g>
<defs>
<filter id="filter0_d" x="0" y="0" width="35" height="47" filterUnits="userSpaceOnUse" color-interpolation-filters="sRGB">
<feFlood flood-opacity="0" result="BackgroundImageFix"/>
<feColorMatrix in="SourceAlpha" type="matrix" values="0 0 0 0 0 0 0 0 0 0 0 0 0 0 0 0 0 0 127 0"/>
<feOffset dy="4"/>
<feGaussianBlur stdDeviation="2"/>
<feColorMatrix type="matrix" values="0 0 0 0 0 0 0 0 0 0 0 0 0 0 0 0 0 0 0.45 0"/>
<feBlend mode="normal" in2="BackgroundImageFix" result="effect1_dropShadow"/>
<feBlend mode="normal" in="SourceGraphic" in2="effect1_dropShadow" result="shape"/>
</filter>
<clipPath id="clip0">
<rect width="21.1015" height="12.2242" fill="white" transform="translate(6.88403 7.3345)"/>
</clipPath>
</defs>
</svg>
